<svg width="188" height="48" viewBox="0 0 188 48" fill="none" xmlns="http://www.w3.org/2000/svg">
<path fill-rule="evenodd" clip-rule="evenodd" d="M56.8242 17.4117V23.6718H66.4321C66.7388 23.6718 66.9874 23.9224 66.9874 24.2319V26.3644C66.9874 26.6737 66.7388 26.9244 66.4321 26.9244H56.8242V35.0799C56.8242 35.389 56.5757 35.6399 56.269 35.6399H54.0322C53.7255 35.6399 53.4769 35.389 53.4769 35.0799V14.7186C53.4769 14.4095 53.7255 14.1587 54.0322 14.1587H67.6798C67.9865 14.1587 68.235 14.4095 68.235 14.7186V16.8517C68.235 17.161 67.9865 17.4117 67.6798 17.4117H56.8242ZM168.601 28.2134C168.601 25.5436 166.897 23.5798 164.432 23.5798C161.937 23.5798 160.202 25.5436 160.202 28.2134C160.202 30.8831 161.907 32.8163 164.432 32.8163C166.897 32.8163 168.601 30.8831 168.601 28.2134ZM171.948 14.7188V35.0799C171.948 35.389 171.699 35.6398 171.393 35.6398H169.156C168.849 35.6398 168.601 35.389 168.601 35.0799V33.8905C167.505 35.2408 165.893 36.0999 163.732 36.0999C159.716 36.0999 156.855 32.6631 156.855 28.2134C156.855 23.8253 159.716 20.296 163.732 20.296C165.893 20.296 167.505 21.1862 168.601 22.5363V14.7188C168.601 14.4095 168.849 14.1588 169.156 14.1588H171.393C171.699 14.1588 171.948 14.4095 171.948 14.7188ZM89.6402 23.242C91.8006 23.242 93.2309 24.6537 93.2918 26.3722H85.6542C86.1715 24.5003 87.6622 23.242 89.6402 23.242ZM93.6879 31.1002L95.9871 31.5364C96.2169 31.5799 96.3524 31.8263 96.2625 32.0441C95.256 34.4763 92.8039 36.074 89.8531 36.1C85.3495 36.1308 82.3678 32.7551 82.3678 28.2442C82.3678 23.7945 85.2585 20.3269 89.6402 20.3269C93.7179 20.3269 96.3039 23.2728 96.3039 27.4461V28.4514C96.3039 28.7607 96.0555 29.0114 95.7486 29.0114H85.5019C85.867 31.5585 87.5406 33.0924 89.8531 33.0924C91.2584 33.0924 92.45 32.4492 93.1064 31.3686C93.2291 31.1667 93.4573 31.0564 93.6879 31.1002ZM124.571 29.865L126.94 30.3143C127.12 30.3487 127.246 30.5112 127.242 30.6962C127.16 34.0381 124.876 36.0999 121.911 36.0999C118.29 36.0999 116.099 33.8596 116.099 30.2389V23.7026H114.098C113.791 23.7026 113.543 23.4519 113.543 23.1426V21.347C113.543 21.0377 113.791 20.7871 114.098 20.7871H116.099V16.9897C116.099 16.6805 116.347 16.4298 116.654 16.4298H118.89C119.197 16.4298 119.446 16.6805 119.446 16.9897V20.7871H126.133C126.439 20.7871 126.688 21.0377 126.688 21.347V23.1426C126.688 23.4519 126.439 23.7026 126.133 23.7026H119.446V30.4228C119.446 32.0493 120.359 32.9394 121.789 32.9394C123.107 32.9394 123.979 31.9638 124.024 30.3072C124.032 30.0222 124.293 29.8124 124.571 29.865ZM105.631 23.242C107.791 23.242 109.221 24.6537 109.282 26.3722H101.644C102.162 24.5003 103.652 23.242 105.631 23.242ZM109.678 31.1002C109.448 31.0564 109.219 31.1667 109.097 31.3686C108.44 32.4492 107.248 33.0924 105.843 33.0924C103.531 33.0924 101.857 31.5585 101.492 29.0114H111.739C112.046 29.0114 112.295 28.7607 112.295 28.4514V27.4461C112.295 23.2728 109.708 20.3269 105.631 20.3269C101.249 20.3269 98.358 23.7945 98.358 28.2442C98.358 32.7551 101.34 36.1308 105.843 36.1C108.794 36.074 111.246 34.4763 112.253 32.0441C112.343 31.8263 112.207 31.5799 111.977 31.5364L109.678 31.1002ZM181.336 23.242C183.496 23.242 184.927 24.6537 184.988 26.3722H177.35C177.867 24.5003 179.358 23.242 181.336 23.242ZM185.384 31.1002L187.683 31.5364C187.913 31.5799 188.048 31.8263 187.958 32.0441C186.952 34.4763 184.5 36.074 181.549 36.1C177.045 36.1308 174.064 32.7551 174.064 28.2442C174.064 23.7945 176.954 20.3269 181.336 20.3269C185.414 20.3269 188 23.2728 188 27.4461V28.4514C188 28.7607 187.751 29.0114 187.445 29.0114H177.198C177.563 31.5585 179.236 33.0924 181.549 33.0924C182.954 33.0924 184.146 32.4492 184.802 31.3686C184.925 31.1667 185.153 31.0564 185.384 31.1002ZM140.371 26.2665H138.131C137.846 26.2665 137.605 26.0477 137.579 25.761C137.443 24.195 136.668 23.4263 135.418 23.4263C133.836 23.4263 132.68 24.7766 132.68 27.4461V35.0799C132.68 35.389 132.431 35.6399 132.124 35.6399H129.888C129.581 35.6399 129.333 35.389 129.333 35.0799V21.3472C129.333 21.0379 129.581 20.7872 129.888 20.7872H132.124C132.431 20.7872 132.68 21.0379 132.68 21.3472V22.1989C133.502 21.0325 134.779 20.2961 136.483 20.2961C139.041 20.2961 140.838 21.9672 140.927 25.6949C140.935 26.0081 140.682 26.2665 140.371 26.2665ZM151.619 29.3794C151.619 31.6197 150.219 33.062 148.272 33.062C146.75 33.062 145.776 32.356 145.776 31.282C145.776 29.9319 147.176 29.4408 148.698 29.1648L151.619 28.6737V29.3794ZM148.637 20.296C152.684 20.296 154.753 22.4443 154.753 25.6665V35.0799C154.753 35.389 154.505 35.6399 154.198 35.6399H152.204C151.898 35.6399 151.649 35.389 151.649 35.0799V33.9213C151.01 35.0566 149.671 36.1 147.633 36.1C144.194 36.1 142.612 33.7679 142.612 31.6811C142.612 28.7353 144.59 27.2314 148.211 26.6177L151.619 26.0348V25.4823C151.619 24.1936 150.645 23.15 148.728 23.15C146.912 23.15 145.87 24.1497 145.772 25.7348C145.754 26.0321 145.514 26.2664 145.218 26.2664H143.221C142.919 26.2664 142.667 26.0234 142.665 25.7193C142.64 22.1212 145.505 20.296 148.637 20.296ZM80.2887 26.2665H78.0488C77.7634 26.2665 77.522 26.0477 77.4971 25.761C77.3606 24.195 76.5857 23.4263 75.336 23.4263C73.7537 23.4263 72.5972 24.7766 72.5972 27.4461V35.0799C72.5972 35.389 72.3487 35.6399 72.042 35.6399H69.8056C69.4989 35.6399 69.2503 35.389 69.2503 35.0799V21.3472C69.2503 21.0379 69.4989 20.7872 69.8056 20.7872H72.042C72.3487 20.7872 72.5972 21.0379 72.5972 21.3472V22.1989C73.419 21.0325 74.6971 20.2961 76.401 20.2961C78.9589 20.2961 80.7557 21.9672 80.8447 25.6949C80.8523 26.0081 80.5993 26.2665 80.2887 26.2665ZM17.189 0.890979C17.189 0.206141 17.9242 -0.22186 18.5122 0.120466L23.9462 3.28446C24.4922 3.60233 24.8287 4.18993 24.8287 4.82586V9.89561C24.8287 12.545 23.427 14.9932 21.1519 16.3179L10.5809 22.4726C8.76073 23.5325 7.63947 25.491 7.63947 27.6105V31.5405C7.63947 32.2254 6.90449 32.6534 6.31628 32.311L0.88231 29.1472C0.336303 28.8292 0 28.2416 0 27.6058V24.0187C0 21.3693 1.40148 18.9211 3.67675 17.5964L14.2476 11.4415C16.0678 10.3818 17.189 8.42327 17.189 6.3038V0.890979ZM29.6759 18.0269C30.2219 17.709 30.8947 17.709 31.4407 18.0269L36.8747 21.1909C37.4629 21.5332 37.4629 22.3892 36.8747 22.7317L23.9502 30.2569C22.1301 31.3168 21.0088 33.2752 21.0088 35.3946V39.3248C21.0088 40.0097 20.2737 40.4377 19.6857 40.0952L14.2517 36.9314C13.7055 36.6135 13.3692 36.0257 13.3692 35.39V31.8028C13.3692 29.1534 14.7709 26.7054 17.0459 25.3806L29.6759 18.0269ZM34.1344 30.9992C34.6804 30.6813 35.3532 30.6813 35.8994 30.9992L41.333 34.1628C41.9212 34.5053 41.9212 35.3615 41.333 35.7042L37.3193 38.0411C35.4994 39.1008 34.3781 41.0591 34.3781 43.1788V47.109C34.3781 47.7939 33.6431 48.2219 33.0549 47.8795L27.621 44.7155C27.075 44.3975 26.7387 43.8101 26.7387 43.1743V39.587C26.7387 36.9376 28.1401 34.4894 30.4152 33.1649L34.1344 30.9992Z" fill="white"/>
</svg>
