<?xml version="1.0" encoding="UTF-8" standalone="no"?>
<!-- Created with Inkscape (http://www.inkscape.org/) -->

<svg
   width="198.62405mm"
   height="289.63452mm"
   viewBox="0 0 198.62405 289.63452"
   version="1.1"
   id="svg5"
   sodipodi:docname="drawing.svg"
   inkscape:version="1.1.2 (b8e25be833, 2022-02-05)"
   xmlns:inkscape="http://www.inkscape.org/namespaces/inkscape"
   xmlns:sodipodi="http://sodipodi.sourceforge.net/DTD/sodipodi-0.dtd"
   xmlns="http://www.w3.org/2000/svg"
   xmlns:svg="http://www.w3.org/2000/svg">
  <sodipodi:namedview
     id="namedview7"
     pagecolor="#ffffff"
     bordercolor="#666666"
     borderopacity="1.0"
     inkscape:pageshadow="2"
     inkscape:pageopacity="0.0"
     inkscape:pagecheckerboard="0"
     inkscape:document-units="mm"
     showgrid="false"
     inkscape:zoom="0.77771465"
     inkscape:cx="-140.79714"
     inkscape:cy="613.3355"
     inkscape:window-width="3440"
     inkscape:window-height="1377"
     inkscape:window-x="-8"
     inkscape:window-y="-8"
     inkscape:window-maximized="1"
     inkscape:current-layer="layer1"
     units="mm" />
  <defs
     id="defs2" />
  <g
     inkscape:label="Layer 1"
     inkscape:groupmode="layer"
     id="layer1"
     style="mix-blend-mode:normal"
     transform="translate(-6.6256016,-3.6230437)">
    <g
       aria-label="D"
       transform="scale(1.0671166,0.9371047)"
       id="text2145"
       style="font-size:390.972px;line-height:1.25;font-family:Impact;-inkscape-font-specification:Impact;fill:#eeeeee;fill-opacity:1;stroke-width:9.7743"
       inkscape:export-filename="C:\Users\Daniel\Desktop\text2145.png"
       inkscape:export-xdpi="96"
       inkscape:export-ydpi="96">
      <path
         id="path10580"
         style="fill:#eeeeee;fill-opacity:1;stroke-width:9.77429"
         d="M 6.2088825,3.8662101 V 86.826015 C 11.905493,78.502657 18.561756,70.942024 26.192934,64.15655 37.730961,54.072308 50.239694,46.693657 63.718903,42.020331 c 13.681944,-4.660605 27.314186,-6.564723 40.897407,-5.712448 16.01603,1.004924 31.33091,5.5304 45.9439,13.576095 14.8157,8.058413 27.60548,19.669206 38.37003,34.8322 l -50.64802,44.424082 c -4.9194,-6.74759 -10.64256,-11.82092 -17.16952,-15.21996 -6.51439,-3.6282 -13.21795,-5.65879 -20.11093,-6.09129 -12.164074,-0.76323 -23.57206,3.23501 -34.223782,11.99509 -5.559997,4.94026 -9.960276,10.98827 -13.200505,18.14374 -3.240231,7.15545 -5.061018,14.40011 -5.462964,21.73366 -0.364262,6.64602 0.285103,13.35571 1.948189,20.12894 1.878378,6.55679 4.903326,12.61055 9.074588,18.16139 4.716666,6.73486 10.230744,11.90997 16.5424,15.52546 6.324217,3.38631 12.93272,5.29594 19.825699,5.72844 5.879305,0.36889 11.821265,-0.40813 17.826185,-2.33097 6.0049,-1.92284 11.47093,-5.14461 16.3976,-9.66468 1.48195,-1.05682 2.98256,-2.45714 4.50218,-4.20148 1.5322,-1.97351 2.63361,-3.51398 3.30461,-4.62168 l 50.9381,44.93362 c -0.88631,1.32416 -2.09542,2.97297 -3.62761,4.94648 -1.51963,1.74435 -3.14059,3.48232 -4.86296,5.21394 -1.51963,1.74435 -3.1406,3.48232 -4.86296,5.21394 -1.50707,1.51517 -2.79275,2.69934 -3.85667,3.55243 -11.74076,10.07152 -24.45177,17.43756 -38.13372,22.09816 -13.68194,4.66061 -27.51743,6.55213 -41.506116,5.67441 C 76.216201,289.09314 61.110887,284.46588 46.307736,276.1783 31.504584,267.89072 18.7904,256.74512 8.1657863,242.74071 7.4990966,241.80256 6.8496068,240.85647 6.2088825,239.90627 v 73.03375 H 107.57902 c 19.21769,0 33.59916,-1.01818 43.14438,-3.05448 9.54521,-2.16358 17.56304,-5.85446 24.05379,-11.07252 6.49075,-5.34531 11.00863,-12.66301 13.55402,-21.95368 2.67266,-9.41794 4.00921,-27.99945 4.00921,-55.7442 V 112.87255 c 0,-29.271993 -0.89088,-48.871649 -2.67265,-58.798673 C 187.886,44.019583 183.43165,34.919705 176.30456,26.774454 169.17747,18.629205 158.74114,12.774941 144.99603,9.2113935 131.37819,5.6478469 105.16082,3.8662101 66.343605,3.8662101 Z" />
    </g>
  </g>
  <g
     inkscape:groupmode="layer"
     id="layer2"
     inkscape:label="Layer 2"
     style="display:none;mix-blend-mode:normal"
     transform="translate(-6.6256016,-3.6230437)">
    <g
       aria-label="C"
       transform="matrix(1.0019551,0.05520796,-0.06207788,0.99462821,0,0)"
       id="text13473"
       style="font-size:323.879px;line-height:1.25;font-family:QUARTZO;-inkscape-font-specification:QUARTZO;fill:#ffffff;stroke-width:8.09696" />
  </g>
  <g
     inkscape:groupmode="layer"
     id="layer3"
     inkscape:label="Layer 3"
     style="display:inline;mix-blend-mode:normal"
     transform="translate(-6.6256016,-3.6230437)">
    <path
       style="fill:#ffd166;fill-opacity:1;stroke-width:0.265862"
       d="m 65.855788,266.07087 0.04059,0.32736 c 26.883068,-43.3579 53.292222,-87.18293 79.726802,-130.95405 -14.0807,0.0836 -28.15338,1.03544 -42.23412,1.09187 3.71158,-34.45085 8.06887,-68.797676 11.8569,-103.236517 C 97.785576,74.99568 80.43665,116.76107 63.193131,158.58844 c 10.410255,0.41752 20.848775,-0.35163 31.247636,0.29662 -9.413445,35.77281 -19.13477,71.42701 -28.584988,107.18576 z"
       id="path21664"
       sodipodi:nodetypes="cccccccsc"
       inkscape:export-filename="C:\Users\Daniel\Desktop\text2145.png"
       inkscape:export-xdpi="96"
       inkscape:export-ydpi="96" />
  </g>
</svg>
