<?xml version="1.0" encoding="UTF-8"?>
<svg width="158px" height="37px" viewBox="0 0 158 37" version="1.1" xmlns="http://www.w3.org/2000/svg" xmlns:xlink="http://www.w3.org/1999/xlink">
    <!-- Generator: Sketch 51.2 (57519) - http://www.bohemiancoding.com/sketch -->
    <title>logo</title>
    <desc>Created with Sketch.</desc>
    <defs></defs>
    <g id="Icons" stroke="none" stroke-width="1" fill="none" fill-rule="evenodd">
        <g id="SLB-GlobalStyles" transform="translate(-64.000000, -437.000000)" fill="#FFF" fill-rule="nonzero">
            <g id="logo" transform="translate(63.455078, 437.328125)">
                <path d="M12.894,16.1621303 C10.876,13.9293494 9.494,12.6577656 7.478,10.7393762 C6.83267215,10.2276199 6.4761095,9.43368942 6.522,8.61072487 L6.522,5.31662199 C6.51873382,5.08992012 6.60723792,4.8715444 6.76735734,4.71122529 C6.92747677,4.55090618 7.1455805,4.46229172 7.372,4.46556197 L7.584,4.46556197 C8.02110381,4.50074337 8.35063385,4.87819942 8.327,5.31662199 L8.327,10.633244 L13.85,10.633244 L13.85,5.31662199 C13.85,1.38272222 10.77,0 7.372,0 C4.08,0.10613219 1,1.48885441 1,5.42275418 L1,9.56991958 C0.978319429,10.6107189 1.23483578,11.6384096 1.743,12.5466271 C3.23,14.8855403 6.203,17.0121891 7.584,18.6071757 C8.12471093,19.1766288 8.39528294,19.9510725 8.327,20.7338245 L8.327,25.3055187 C8.221,25.517783 8.221,25.6249165 8.008,25.7310487 C7.92313249,25.812848 7.80588508,25.8518565 7.689,25.8371809 L7.478,25.8371809 C7.05524236,25.8200803 6.70146302,25.5104499 6.628,25.0932543 L6.628,24.8809899 L6.628,18.5010435 L1,18.5010435 L1,24.7738565 C1,28.7077562 4.08,30.0904784 7.478,30.0904784 C10.876,30.0904784 13.956,28.601624 13.956,24.5615921 L13.956,19.7766323 C14.1677309,18.4725849 13.77712,17.1427778 12.894,16.1611291" id="Path_1-2"></path>
                <rect id="Rectangle_2-2" x="41.5694844" y="-2.27373675e-13" width="4.991" height="29.5588162"></rect>
                <path d="M12.7904844,16.1621303 C10.7724844,13.9293494 9.39048438,12.6577656 7.37448438,10.7393762 C6.72915652,10.2276199 6.37259387,9.43368942 6.41848438,8.61072487 L6.41848438,5.31662199 C6.4152182,5.08992012 6.50372229,4.8715444 6.66384172,4.71122529 C6.82396114,4.55090618 7.04206487,4.46229172 7.26848438,4.46556197 L7.48048438,4.46556197 C7.91758818,4.50074337 8.24711822,4.87819942 8.22348438,5.31662199 L8.22348438,10.633244 L13.7464844,10.633244 L13.7464844,5.31662199 C13.7464844,1.38272222 10.6664844,-2.27373675e-13 7.26848438,-2.27373675e-13 C3.97648438,0.10613219 0.896484375,1.48885441 0.896484375,5.42275418 L0.896484375,9.56991958 C0.874803804,10.6107189 1.13132015,11.6384096 1.63948438,12.5466271 C3.12648438,14.8855403 6.09948438,17.0121891 7.48048438,18.6071757 C8.0211953,19.1766288 8.29176732,19.9510725 8.22348438,20.7338245 L8.22348438,25.3055187 C8.11748438,25.517783 8.11748438,25.6249165 7.90448438,25.7310487 C7.81961687,25.812848 7.70236946,25.8518565 7.58548438,25.8371809 L7.37448438,25.8371809 C6.95172673,25.8200803 6.5979474,25.5104499 6.52448438,25.0932543 L6.52448438,24.8809899 L6.52448438,18.5010435 L0.896484375,18.5010435 L0.896484375,24.7738565 C0.896484375,28.7077562 3.97648438,30.0904784 7.37448438,30.0904784 C10.7724844,30.0904784 13.8524844,28.601624 13.8524844,24.5615921 L13.8524844,19.7766323 C14.0642153,18.4725849 13.6736044,17.1427778 12.7904844,16.1611291" id="Path_1-2"></path>
                <path d="M27.0194844,14.1456187 L27.0194844,10.9516405 C27.0194844,7.44727577 24.2584844,5.63501856 21.1784844,5.63501856 C17.9924844,5.63501856 15.3374844,7.44226953 15.3374844,10.9516405 L15.3374844,24.4584636 C15.3374844,27.9628284 17.9924844,29.7750856 21.1784844,29.7750856 C24.2584844,29.7750856 27.0194844,27.9678346 27.0194844,24.4584636 L27.0194844,20.2021623 L22.0284844,20.2021623 L22.0284844,24.9871221 C22.0114052,25.4104069 21.7021604,25.7646275 21.2854844,25.8381821 L21.1794844,25.8381821 C20.9826174,25.8343153 20.7938793,25.7588682 20.6484844,25.6259177 C20.442639,25.4798324 20.3230165,25.2406645 20.3294844,24.9881233 L20.3294844,10.4199783 C20.3294844,9.94995088 20.7100423,9.56891833 21.1794844,9.56891833 C21.6489264,9.56891833 22.0294844,9.94995088 22.0294844,10.4199783 L22.0294844,14.2457434 L27.0204844,14.2457434 L27.0194844,14.1456187 Z" id="Path_2-2"></path>
                <path d="M36.6834844,5.74215199 C35.2114685,5.70022354 33.8985027,6.6631941 33.4944844,8.08106517 L33.2824844,8.08106517 L33.2824844,-2.27373675e-13 L28.2944844,-2.27373675e-13 L28.2944844,29.5588162 L33.2854844,29.5588162 L33.2854844,10.8455084 C33.2898483,10.5108024 33.501623,10.2141077 33.8164844,10.1015818 L34.0284844,10.1015818 C34.4844899,10.1325748 34.8475299,10.4960676 34.8784844,10.9526418 L34.8784844,29.6659497 L39.8694844,29.6659497 L39.8694844,10.8425046 C39.9754844,8.18419362 39.8694844,5.73614451 36.6834844,5.73614451" id="Path_3-3"></path>
                <path d="M54.8464844,5.95441638 L54.8464844,24.5615921 C54.8155299,25.0181663 54.4524899,25.3816591 53.9964844,25.4126521 L53.7844844,25.4126521 C53.6784844,25.4126521 53.6784844,25.4126521 53.5724844,25.3065199 C53.257623,25.193994 53.0458483,24.8972993 53.0414844,24.5625933 L53.0414844,5.95441638 L48.0464844,5.95441638 L48.0464844,25.5187843 C48.0464844,27.9638297 49.0024844,29.7720819 51.5464844,29.7720819 C53.2180891,29.7555284 54.6005091,28.4639213 54.7324844,26.7953743 L54.8464844,26.7953743 L54.8464844,29.4536853 L59.8374844,29.4536853 L59.8374844,5.95441638 L54.8464844,5.95441638 Z" id="Path_4-2"></path>
                <path d="M73.1074844,8.18719736 C72.4714844,6.27381419 71.6224844,5.74215199 69.9274844,5.74215199 C67.9094844,5.74215199 67.3784844,6.59321201 66.5274844,8.08106517 L66.4214844,8.08106517 L66.4214844,5.95441638 L61.4274844,5.95441638 L61.4274844,29.4526841 L66.4184844,29.4526841 L66.4184844,10.8485121 C66.4184844,10.3784846 66.7990423,9.99745208 67.2684844,9.99745208 C67.7379264,9.99745208 68.1184844,10.3784846 68.1184844,10.8485121 L68.1184844,29.4526841 L73.1094844,29.4526841 L73.1094844,10.9486368 C73.1094844,10.4786093 73.4900423,10.0975768 73.9594844,10.0975768 C74.4289264,10.0975768 74.8094844,10.4786093 74.8094844,10.9486368 L74.8094844,29.5598175 L79.8004844,29.5598175 L79.8004844,10.1015818 C79.9054844,8.2943308 79.5864844,5.74215199 76.5074844,5.74215199 C74.4894844,5.74215199 73.9584844,6.59321201 73.1074844,8.18719736 Z" id="Path_5-2"></path>
                <path d="M89.6754844,5.74215199 C88.2306969,5.70835592 86.9542575,6.67861296 86.5984844,8.08106517 L86.4924844,8.08106517 L86.4924844,-2.27373675e-13 L81.4984844,-2.27373675e-13 L81.4984844,29.5588162 L86.4894844,29.5588162 L86.4894844,27.1137709 L86.5984844,27.1137709 C86.8460191,28.6301547 88.1440455,29.7504656 89.6784844,29.7720819 C92.7584844,29.7720819 93.1784844,27.1137709 93.1784844,24.4554599 L93.1784844,10.8455084 C93.1784844,8.18719736 92.7534844,5.73914825 89.6784844,5.73914825 L89.6754844,5.74215199 Z M88.1884844,12.866025 L88.1884844,24.2421943 L88.1884844,24.5615921 C88.1575299,25.0181663 87.7944899,25.3816591 87.3384844,25.4126521 C87.1264844,25.4126521 87.0194844,25.4126521 86.9134844,25.3065199 C86.6547542,25.1469755 86.4946757,24.8667715 86.4884844,24.5625933 L86.4884844,22.5410755 L86.4884844,10.8455084 C86.4884844,10.3754809 86.8690423,9.99444834 87.3384844,9.99444834 C87.8079264,9.99444834 88.1884844,10.3754809 88.1884844,10.8455084 L88.1884844,12.866025 Z" id="Path_6-2"></path>
                <path d="M106.347484,11.058774 C106.347484,7.55440921 103.586484,5.74215199 100.506484,5.74215199 C97.3204844,5.74215199 94.6654844,7.54940297 94.6654844,11.058774 L94.6654844,24.4554599 C94.6654844,27.9598247 97.3204844,29.7720819 100.506484,29.7720819 C103.586484,29.7720819 106.347484,27.9648309 106.347484,24.4554599 L106.347484,20.2021623 L101.356484,20.2021623 L101.356484,25.0932543 C101.356484,25.5632817 100.975926,25.9443143 100.506484,25.9443143 C100.037042,25.9443143 99.6564844,25.5632817 99.6564844,25.0932543 L99.6564844,24.6657218 L99.6564844,18.5010435 L106.346484,18.5010435 L106.347484,11.058774 Z M101.356484,14.9926738 L99.6564844,14.9926738 L99.6564844,10.4209796 C99.6532182,10.1942777 99.7417223,9.975902 99.9018417,9.8155829 C100.061961,9.65526379 100.280065,9.56664932 100.506484,9.56991958 C100.96249,9.60091261 101.32553,9.96440536 101.356484,10.4209796 L101.356484,10.7403774 L101.356484,14.9926738 Z" id="Path_7-2"></path>
                <path d="M116.434484,5.74215199 C114.893534,5.71027852 113.496259,6.64402265 112.934484,8.08106517 L112.828484,8.08106517 L112.828484,5.95441638 L107.834484,5.95441638 L107.834484,29.4526841 L112.825484,29.4526841 L112.825484,10.8485121 C112.829848,10.5138061 113.041623,10.2171115 113.356484,10.1045855 L113.568484,10.1045855 C114.02449,10.1355786 114.38753,10.4990713 114.418484,10.9556455 L114.418484,18.7173129 L119.409484,18.7173129 L119.409484,9.88931739 C119.515484,7.33713859 118.878484,5.74215199 116.436484,5.74215199" id="Path_8-2"></path>
                <path d="M145.533484,11.058774 C145.533484,7.55440921 142.772484,5.74215199 139.692484,5.74215199 C136.506484,5.74215199 133.851484,7.54940297 133.851484,11.058774 L133.851484,24.4554599 C133.851484,27.9598247 136.506484,29.7720819 139.692484,29.7720819 C142.772484,29.7720819 145.533484,27.9648309 145.533484,24.4554599 L145.533484,20.2021623 L140.542484,20.2021623 L140.542484,23.0737389 L140.542484,25.0942555 C140.542484,25.564283 140.161926,25.9453155 139.692484,25.9453155 C139.223042,25.9453155 138.842484,25.564283 138.842484,25.0942555 L138.842484,23.0737389 L138.842484,18.608177 L145.532484,18.608177 L145.533484,11.058774 Z M140.542484,12.4404949 L140.542484,14.9926738 L138.842484,14.9926738 L138.842484,12.4404949 L138.842484,10.4209796 C138.842484,9.95095212 139.223042,9.56991958 139.692484,9.56991958 C140.161926,9.56991958 140.542484,9.95095212 140.542484,10.4209796 L140.542484,12.4404949 Z" id="Path_9-2"></path>
                <path d="M155.407484,5.74215199 C153.866534,5.71027852 152.469259,6.64402265 151.907484,8.08106517 L151.801484,8.08106517 L151.801484,5.95441638 L146.807484,5.95441638 L146.807484,29.4526841 L151.798484,29.4526841 L151.798484,10.8485121 C151.798484,10.5444576 151.960493,10.2634996 152.223484,10.1114724 C152.486475,9.95944512 152.810493,9.95944512 153.073484,10.1114724 C153.336475,10.2634996 153.498484,10.5444576 153.498484,10.8485121 L153.498484,18.7163116 L158.489484,18.7163116 L158.489484,9.88931739 C158.595484,7.33713859 157.957484,5.74215199 155.407484,5.74215199" id="Path_10-2"></path>
                <path d="M127.484484,5.95441638 L127.484484,8.18719736 L127.272484,8.18719736 C126.696393,6.79061862 125.378264,5.84271077 123.872484,5.74215199 C121.642484,5.74215199 120.686484,7.65653641 120.686484,9.99544958 L120.686484,24.1370633 C120.686484,26.3698443 121.536484,28.0709631 123.872484,28.0709631 C125.335531,28.0277953 126.650027,27.1645653 127.272484,25.8381821 L127.484484,25.8381821 L127.484484,31.4742019 C127.484484,31.9442294 127.103926,32.3252619 126.634484,32.3252619 C126.165042,32.3252619 125.784484,31.9442294 125.784484,31.4742019 L125.784484,29.4526841 L120.793484,29.4526841 L120.793484,30.7282728 C120.793484,34.5560404 123.235484,36.0448948 126.634484,36.0448948 C130.134484,36.0448948 132.475484,34.5560404 132.475484,30.7282728 L132.475484,5.95441638 L127.484484,5.95441638 Z M127.484484,23.1758661 C127.484484,23.6458936 127.103926,24.0269261 126.634484,24.0269261 C126.165042,24.0269261 125.784484,23.6458936 125.784484,23.1758661 L125.784484,21.161357 L125.784484,10.8485121 C125.784484,10.3784846 126.165042,9.99745208 126.634484,9.99745208 C127.103926,9.99745208 127.484484,10.3784846 127.484484,10.8485121 L127.484484,21.161357 L127.484484,23.1758661 Z" id="Path_11-2"></path>
            </g>
        </g>
    </g>
</svg>